<svg width="427" height="429" viewBox="0 0 427 429" fill="none" xmlns="http://www.w3.org/2000/svg">
<g filter="url(#filter0_d_696_3432)">
<path d="M199.803 380.425L185.826 394.825L186.38 390.945L195.289 408.064L189.469 407.229L182.834 394.558L185.215 394.859L175.373 405.206L169.79 404.405L183.015 390.745L182.483 394.467L173.037 376.584L178.976 377.436L185.945 390.882L183.609 390.547L193.943 379.584L199.803 380.425Z" fill="#C7F25D"/>
<path d="M162.363 382.831L161.126 386.803L150.628 383.518L151.865 379.546L162.363 382.831Z" fill="#C7F25D"/>
<path d="M132.163 360.806C134.065 361.772 135.68 362.981 137.008 364.432C138.301 365.896 139.264 367.507 139.9 369.265C140.499 371.035 140.735 372.874 140.607 374.783C140.479 376.692 139.946 378.574 139.007 380.431C138.069 382.287 136.87 383.832 135.411 385.064C133.951 386.297 132.326 387.177 130.536 387.704C128.734 388.254 126.869 388.428 124.939 388.226C122.997 388.048 121.064 387.47 119.138 386.492C117.093 385.454 115.407 384.149 114.079 382.578C112.74 381.031 111.836 379.271 111.369 377.299L115.79 376C116.201 377.434 116.844 378.673 117.721 379.717C118.586 380.784 119.673 381.65 120.98 382.314C122.288 382.978 123.597 383.373 124.907 383.5C126.194 383.615 127.44 383.485 128.645 383.11C129.827 382.723 130.914 382.108 131.907 381.267C132.876 380.413 133.686 379.344 134.335 378.058C134.985 376.773 135.366 375.486 135.479 374.198C135.569 372.898 135.42 371.656 135.032 370.472C134.62 369.276 133.988 368.192 133.134 367.221C132.257 366.237 131.165 365.413 129.857 364.749C128.549 364.085 127.216 363.707 125.858 363.616C124.488 363.548 123.098 363.785 121.69 364.326L120.137 359.949C121.988 359.184 123.938 358.873 125.987 359.016C128.036 359.159 130.095 359.756 132.163 360.806Z" fill="#C7F25D"/>
<path d="M105.607 343.903C107.326 345.254 108.569 346.825 109.336 348.614C110.087 350.425 110.341 352.286 110.098 354.198C109.855 356.11 109.085 357.896 107.787 359.555C106.473 361.236 104.927 362.412 103.149 363.083C101.354 363.776 99.4985 363.963 97.5816 363.643C95.6646 363.324 93.8465 362.489 92.1271 361.138C90.3867 359.771 89.1331 358.192 88.3661 356.402C87.5782 354.596 87.3079 352.756 87.5552 350.882C87.7815 348.991 88.56 347.194 89.8907 345.493C91.1885 343.834 92.7346 342.658 94.529 341.965C96.3024 341.256 98.1663 341.058 100.121 341.373C102.038 341.692 103.866 342.536 105.607 343.903ZM102.97 347.275C102.005 346.517 100.981 346.051 99.8979 345.878C98.8145 345.705 97.751 345.853 96.7073 346.322C95.6427 346.774 94.6915 347.536 93.8536 348.607C92.9994 349.699 92.4885 350.807 92.3209 351.93C92.116 353.058 92.2267 354.128 92.653 355.142C93.0793 356.155 93.7642 357.032 94.7078 357.774C95.6723 358.531 96.6963 358.997 97.7797 359.17C98.8421 359.326 99.9057 359.179 100.97 358.726C102.018 358.295 102.97 357.533 103.824 356.441C104.662 355.37 105.173 354.262 105.357 353.118C105.541 351.974 105.43 350.903 105.025 349.907C104.598 348.893 103.913 348.016 102.97 347.275Z" fill="#C7F25D"/>
<path d="M54.8873 322.804C53.8272 321.466 53.1522 320.078 52.8621 318.639C52.5554 317.179 52.7126 315.724 53.3336 314.275C53.9337 312.843 55.0787 311.454 56.7684 310.108L66.3437 302.484L69.4494 306.402L60.3748 313.628C58.8936 314.808 58.0447 316.012 57.8281 317.241C57.6114 318.47 57.9834 319.691 58.9441 320.903C59.6232 321.76 60.4155 322.373 61.3211 322.743C62.21 323.092 63.1687 323.164 64.197 322.959C65.2087 322.732 66.2778 322.171 67.4043 321.274L75.8843 314.522L78.99 318.44L69.9154 325.666C68.4343 326.845 67.5854 328.05 67.3687 329.279C67.1521 330.508 67.5241 331.729 68.4848 332.941C69.1639 333.798 69.9562 334.411 70.8617 334.781C71.7507 335.13 72.7093 335.201 73.7376 334.996C74.7493 334.77 75.8184 334.209 76.945 333.312L85.425 326.559L88.5307 330.478L71.8209 343.783L68.8643 340.053L73.3077 336.515L72.5152 338.219C70.9832 338.519 69.5132 338.36 68.1052 337.743C66.6807 337.104 65.4218 336.096 64.3286 334.716C63.0863 333.149 62.3956 331.483 62.2565 329.719C62.1008 327.934 62.6561 326.231 63.9226 324.609L64.6081 326.568C62.9257 327.022 61.2122 326.92 59.4673 326.264C57.7225 325.608 56.1958 324.455 54.8873 322.804Z" fill="#C7F25D"/>
<path d="M52.7398 274.674L26.687 284.934L24.7894 280.092L50.8421 269.833L52.7398 274.674Z" fill="#C7F25D"/>
<path d="M46.7987 258.002L26.1356 263.414L24.9349 258.808L30.6231 257.318L29.1004 258.296C27.546 258.041 26.2361 257.35 25.1707 256.224C24.0986 255.071 23.3036 253.501 22.7857 251.514L27.3904 250.308C27.3926 250.528 27.4173 250.728 27.4643 250.909C27.4856 251.097 27.5198 251.281 27.5669 251.461C28.0445 253.293 28.9663 254.609 30.3322 255.409C31.6724 256.216 33.4002 256.343 35.5155 255.789L45.5375 253.164L46.7987 258.002Z" fill="#C7F25D"/>
<path d="M40.8322 224.61C40.9989 226.415 40.7488 228.059 40.0821 229.54C39.4154 231.021 38.3235 232.247 36.8063 233.218C35.26 234.165 33.2522 234.753 30.7828 234.982C28.2869 235.213 26.2043 234.991 24.5352 234.316C22.8636 233.614 21.5779 232.595 20.678 231.259C19.749 229.899 19.205 228.356 19.0457 226.63C18.8521 224.532 19.1332 222.645 19.889 220.968C20.6423 219.264 21.7859 217.873 23.3199 216.793C24.8514 215.687 26.7191 215.032 28.9229 214.827C31.1268 214.623 33.0827 214.924 34.7907 215.73C36.4962 216.509 37.8883 217.665 38.9671 219.199C40.017 220.708 40.6387 222.512 40.8322 224.61ZM41.6414 236.426L12.0882 239.165L11.6287 234.187L24.852 232.961L30.5445 232.835L36.1856 232.151L41.204 231.686L41.6414 236.426ZM36.622 225.563C36.5117 224.368 36.1482 223.33 35.5313 222.45C34.9121 221.543 34.0722 220.858 33.0117 220.394C31.9513 219.93 30.7439 219.76 29.3898 219.886C28.009 220.014 26.8531 220.402 25.9221 221.051C24.9646 221.702 24.2644 222.53 23.8216 223.536C23.3763 224.514 23.2088 225.601 23.319 226.796C23.4293 227.991 23.7941 229.042 24.4133 229.948C25.0326 230.855 25.8725 231.54 26.9329 232.004C27.9669 232.471 29.1742 232.64 30.5549 232.512C31.9091 232.387 33.065 231.998 34.0225 231.347C34.9801 230.696 35.6803 229.868 36.1231 228.863C36.566 227.858 36.7323 226.757 36.622 225.563Z" fill="#C7F25D"/>
<path d="M39.997 202.909L18.6709 201.706L18.9514 196.713L40.2775 197.917L39.997 202.909ZM15.2979 198.991C15.2455 199.923 14.9093 200.679 14.2892 201.258C13.6705 201.811 12.9485 202.064 12.1232 202.017C11.2712 201.969 10.5821 201.636 10.0559 201.019C9.50456 200.374 9.25507 199.585 9.30742 198.653C9.35978 197.721 9.68196 196.978 10.274 196.424C10.8409 195.842 11.537 195.574 12.3623 195.62C13.2409 195.67 13.97 196.005 14.5494 196.625C15.1022 197.244 15.3517 198.033 15.2979 198.991Z" fill="#C7F25D"/>
<path d="M42.8549 179.402C42.5289 181.159 41.9921 182.808 41.2447 184.351C40.476 185.862 39.6764 187.028 38.8458 187.85L35.4606 185.266C36.2387 184.434 36.9461 183.4 37.5826 182.162C38.2192 180.925 38.6591 179.65 38.9025 178.339C39.1896 176.792 39.1867 175.639 38.8938 174.879C38.6058 174.093 38.1079 173.634 37.4001 173.502C36.8233 173.394 36.347 173.55 35.971 173.968C35.5689 174.381 35.2186 174.953 34.9201 175.684C34.6217 176.415 34.3194 177.241 34.0131 178.16C33.7117 179.053 33.3685 179.952 32.9836 180.857C32.5773 181.731 32.0939 182.508 31.5333 183.191C30.9466 183.868 30.2424 184.374 29.4207 184.709C28.5991 185.044 27.5854 185.099 26.3795 184.874C25.0426 184.625 23.9597 184.03 23.1309 183.089C22.2758 182.142 21.7127 180.939 21.4415 179.478C21.1489 177.985 21.1778 176.295 21.5282 174.408C21.791 172.992 22.2136 171.592 22.7958 170.209C23.378 168.825 24.0451 167.716 24.7971 166.879L28.1823 169.464C27.3944 170.348 26.8007 171.281 26.4012 172.265C25.9803 173.217 25.6774 174.191 25.4925 175.188C25.2151 176.682 25.2311 177.838 25.5404 178.655C25.8547 179.446 26.3526 179.905 27.0342 180.032C27.6633 180.15 28.179 180.002 28.5812 179.588C28.9834 179.175 29.3468 178.605 29.6714 177.879C29.996 177.153 30.3091 176.343 30.6105 175.45C30.8905 174.526 31.2337 173.627 31.64 172.753C32.0462 171.88 32.5296 171.102 33.0902 170.42C33.6294 169.706 34.3099 169.182 35.1315 168.847C35.9531 168.512 36.9537 168.455 38.1334 168.675C39.4441 168.919 40.5115 169.525 41.3354 170.492C42.1642 171.434 42.7225 172.663 43.0102 174.182C43.2717 175.696 43.2199 177.436 42.8549 179.402Z" fill="#C7F25D"/>
<path d="M52.7102 143.444L27.746 130.764L33.6657 119.055C35.1817 116.057 36.9311 114.074 38.914 113.107C40.8731 112.128 42.8393 112.14 44.8127 113.142C46.1441 113.818 47.1289 114.707 47.7671 115.809C48.3815 116.899 48.6856 118.1 48.6792 119.413C48.6611 120.69 48.3453 121.935 47.7317 123.149L46.7727 121.854C47.4825 120.45 48.3817 119.322 49.4703 118.469C50.5351 117.604 51.7173 117.098 53.0169 116.95C54.3286 116.779 55.7096 117.062 57.1599 117.799C59.2997 118.885 60.5489 120.552 60.9075 122.798C61.266 125.044 60.6272 127.785 58.9908 131.021L52.7102 143.444ZM51.4188 136.956L55.2088 129.459C56.0871 127.722 56.4756 126.244 56.3743 125.026C56.2729 123.808 55.5922 122.879 54.3321 122.239C53.0957 121.611 51.9576 121.617 50.9178 122.255C49.8542 122.881 48.8832 124.063 48.0049 125.8L44.0344 133.653L40.4324 131.824L43.9336 124.899C44.7518 123.28 45.0922 121.898 44.9547 120.751C44.8293 119.581 44.1959 118.706 43.0547 118.126C41.8897 117.535 40.7993 117.534 39.7835 118.125C38.7798 118.692 37.8688 119.784 37.0507 121.403L33.7299 127.971L51.4188 136.956Z" fill="#C7F25D"/>
<path d="M78.2841 101.572L74.8878 98.9025L73.9919 98.5544L68.0483 93.8825C66.8952 92.9762 65.7331 92.6223 64.5619 92.821C63.3697 93.0032 62.2231 93.7979 61.1222 95.2051C60.3827 96.1502 59.7983 97.2002 59.3688 98.355C58.9557 99.4888 58.7648 100.577 58.7959 101.619L54.7264 100.913C54.7411 99.4661 55.0655 97.9912 55.6996 96.4884C56.3291 94.9481 57.1697 93.5059 58.2213 92.1617C60.1274 89.7255 62.1851 88.3072 64.3944 87.9069C66.5991 87.4691 68.9175 88.206 71.3494 90.1176L81.1926 97.8547L78.2841 101.572ZM74.3634 107.038C73.3775 108.298 72.3052 109.236 71.1464 109.851C69.9667 110.45 68.7941 110.716 67.6285 110.648C66.4584 110.542 65.3912 110.11 64.4268 109.352C63.4834 108.61 62.8068 107.722 62.3971 106.688C62.0039 105.633 61.9897 104.418 62.3546 103.042C62.7195 101.667 63.5675 100.129 64.8985 98.4278L68.7189 93.5447L71.3291 95.5964L67.7305 100.196C66.6788 101.54 66.1924 102.616 66.2711 103.424C66.3289 104.216 66.6723 104.859 67.3013 105.353C68.0141 105.914 68.802 106.075 69.6649 105.838C70.5279 105.6 71.3538 104.977 72.1425 103.969C72.8984 103.003 73.352 101.969 73.5032 100.867C73.671 99.7437 73.4565 98.6763 72.8598 97.6646L75.736 98.8569C76.4256 100.009 76.6568 101.294 76.4296 102.709C76.2188 104.104 75.5301 105.547 74.3634 107.038Z" fill="#C7F25D"/>
<path d="M94.8028 84.4355C93.4841 85.641 92.0621 86.6339 90.5368 87.4142C89.0131 88.1568 87.6727 88.6054 86.5155 88.7601L85.3751 84.654C86.4964 84.4599 87.6837 84.0609 88.937 83.4571C90.1903 82.8533 91.3089 82.1016 92.293 81.2019C93.4542 80.1403 94.1471 79.2179 94.3717 78.4345C94.6159 77.6331 94.4957 76.9661 94.0112 76.4336C93.6163 75.9997 93.143 75.8362 92.5914 75.9431C92.0217 76.0303 91.3977 76.2757 90.7192 76.6791C90.0408 77.0826 89.3024 77.5589 88.5042 78.108C87.7256 78.6392 86.9102 79.1497 86.0581 79.6397C85.2077 80.0919 84.3536 80.4212 83.4956 80.6274C82.6198 80.8139 81.7534 80.793 80.8966 80.5646C80.0399 80.3362 79.1987 79.7684 78.3731 78.8611C77.4578 77.8553 76.9535 76.7265 76.8602 75.475C76.7489 74.2037 77.0255 72.903 77.69 71.5729C78.3563 70.2051 79.3979 68.8735 80.815 67.5779C81.8778 66.6063 83.0581 65.744 84.3559 64.9911C85.6538 64.2382 86.8544 63.7548 87.9578 63.5409L89.0982 67.647C87.9375 67.8771 86.9016 68.2641 85.9905 68.808C85.081 69.3143 84.2524 69.9093 83.5045 70.593C82.3826 71.6186 81.6987 72.5509 81.4528 73.39C81.2265 74.2111 81.3466 74.8781 81.8133 75.3909C82.244 75.8643 82.7442 76.0573 83.3138 75.9701C83.8835 75.8829 84.5165 75.6475 85.2129 75.2637C85.9093 74.88 86.6468 74.4226 87.4254 73.8914C88.2057 73.3226 89.021 72.812 89.8714 72.3598C90.7218 71.9075 91.5759 71.5783 92.4339 71.372C93.2935 71.1281 94.1517 71.1203 95.0085 71.3487C95.8653 71.577 96.6975 72.135 97.5052 73.0225C98.4025 74.0087 98.888 75.1365 98.9617 76.4061C99.0549 77.6576 98.7586 78.9763 98.0727 80.3621C97.3689 81.7282 96.2789 83.086 94.8028 84.4355Z" fill="#C7F25D"/>
<path d="M116.599 67.3191C114.659 68.6403 112.824 69.1645 111.092 68.8919C109.346 68.5972 107.807 67.4677 106.475 65.5034L95.7227 49.6449L99.855 46.83L110.54 62.5891C111.109 63.4278 111.76 63.9363 112.493 64.1146C113.248 64.2778 114.011 64.0967 114.782 63.5713C115.708 62.9407 116.315 62.1725 116.603 61.2666L119.757 63.4249C119.542 64.1525 119.149 64.8558 118.578 65.5349C118.008 66.2139 117.348 66.8087 116.599 67.3191ZM97.7969 58.9765L95.5521 55.6657L107.321 47.6488L109.566 50.9596L97.7969 58.9765Z" fill="#C7F25D"/>
<path d="M128.655 59.7289L118.789 40.7841L123.219 38.4661L133.085 57.411L128.655 59.7289ZM119.395 36.4938C118.569 36.9265 117.748 37.0248 116.933 36.7888C116.143 36.5405 115.556 36.0497 115.174 35.3165C114.78 34.5597 114.714 33.7969 114.975 33.0283C115.247 32.2236 115.797 31.6049 116.624 31.1722C117.451 30.7395 118.254 30.6355 119.032 30.8603C119.822 31.0489 120.408 31.5099 120.79 32.2431C121.196 33.0236 121.281 33.8218 121.045 34.6378C120.796 35.4301 120.246 36.0488 119.395 36.4938Z" fill="#C7F25D"/>
<path d="M153.051 49.1338C150.989 49.8615 148.999 50.069 147.08 49.7564C145.152 49.4187 143.449 48.6341 141.971 47.4025C140.493 46.171 139.404 44.5614 138.706 42.5739C137.999 40.5611 137.841 38.6232 138.233 36.7601C138.615 34.8718 139.456 33.2034 140.756 31.7548C142.056 30.3063 143.737 29.2181 145.799 28.4904C147.887 27.7538 149.889 27.5418 151.808 27.8544C153.752 28.1581 155.446 28.9176 156.891 30.1328C158.36 31.3392 159.453 32.9613 160.169 34.9992C160.867 36.9868 161.025 38.9248 160.642 40.813C160.285 42.6924 159.448 44.3734 158.132 45.856C156.832 47.3046 155.138 48.3971 153.051 49.1338ZM151.633 45.0957C152.789 44.6874 153.732 44.072 154.46 43.2493C155.189 42.4266 155.637 41.4485 155.804 40.3149C155.996 39.1725 155.867 37.9597 155.416 36.6766C154.956 35.3683 154.299 34.3419 153.444 33.5973C152.605 32.8188 151.645 32.3376 150.563 32.1539C149.481 31.9702 148.374 32.0781 147.242 32.4774C146.086 32.8857 145.143 33.5011 144.414 34.3238C143.711 35.1376 143.263 36.1157 143.071 37.2582C142.87 38.3754 142.999 39.5882 143.459 40.8965C143.91 42.1797 144.567 43.2061 145.431 43.9758C146.295 44.7454 147.255 45.2266 148.312 45.4192C149.394 45.6029 150.501 45.495 151.633 45.0957Z" fill="#C7F25D"/>
<path d="M182.56 19.3742C184.248 19.1211 185.8 19.2254 187.217 19.6871C188.66 20.1448 189.867 21.0021 190.836 22.2589C191.802 23.4893 192.444 25.1727 192.763 27.309L194.569 39.415L189.625 40.1564L187.912 28.6834C187.633 26.8108 186.976 25.4802 185.942 24.6915C184.934 23.8989 183.638 23.6212 182.056 23.8584C180.896 24.0324 179.903 24.424 179.077 25.0332C178.251 25.6424 177.659 26.4592 177.299 27.4839C176.962 28.4781 176.9 29.6874 177.113 31.1116L178.707 41.7933L173.762 42.5347L170.609 21.4087L175.317 20.7029L176.167 26.3998L175.076 24.7836C175.614 23.3278 176.528 22.1391 177.82 21.2174C179.134 20.2654 180.714 19.651 182.56 19.3742Z" fill="#C7F25D"/>
<path d="M221.224 38.7903L235.291 24.4778L234.713 28.3549L225.911 11.18L231.726 12.0519L238.282 24.7644L235.902 24.4481L245.809 14.1633L251.386 14.9996L238.077 28.5761L238.632 24.8573L247.966 42.7997L242.032 41.91L235.148 28.4201L237.482 28.77L227.079 39.6681L221.224 38.7903Z" fill="#C7F25D"/>
<path d="M258.676 36.62L259.938 32.656L270.415 36.0067L269.153 39.9707L258.676 36.62Z" fill="#C7F25D"/>
<path d="M288.736 58.8356C286.84 57.8578 285.233 56.6389 283.914 55.1788C282.631 53.7071 281.678 52.0903 281.053 50.3282C280.465 48.5547 280.241 46.7139 280.381 44.8059C280.521 42.8979 281.066 41.0186 282.016 39.1681C282.965 37.3177 284.174 35.7806 285.641 34.557C287.109 33.3335 288.739 32.4639 290.532 31.9485C292.338 31.4093 294.204 31.2468 296.133 31.4611C298.073 31.6516 300.003 32.2419 301.923 33.2318C303.961 34.2829 305.639 35.5982 306.957 37.1776C308.286 38.7334 309.179 40.4987 309.634 42.4735L305.204 43.7449C304.803 42.3078 304.167 41.0648 303.297 40.0159C302.439 38.9433 301.358 38.0708 300.054 37.3986C298.751 36.7265 297.444 36.3228 296.135 36.1876C294.849 36.0647 293.602 36.1869 292.394 36.5542C291.211 36.9338 290.119 37.5413 289.121 38.3767C288.147 39.2243 287.33 40.2886 286.673 41.5697C286.015 42.8508 285.626 44.1352 285.505 45.4227C285.407 46.7225 285.548 47.9655 285.929 49.1518C286.333 50.3502 286.958 51.4379 287.806 52.4149C288.677 53.4042 289.764 54.2349 291.068 54.9071C292.371 55.5793 293.702 55.9653 295.059 56.0653C296.429 56.1415 297.82 55.9136 299.232 55.3816L300.757 59.7684C298.901 60.5219 296.95 60.8206 294.902 60.6645C292.853 60.5085 290.798 59.8989 288.736 58.8356Z" fill="#C7F25D"/>
<path d="M315.188 75.9051C313.477 74.5433 312.244 72.9652 311.488 71.1708C310.749 69.3554 310.507 67.4926 310.762 65.5822C311.017 63.6718 311.798 61.891 313.106 60.2398C314.431 58.5677 315.985 57.4014 317.767 56.7408C319.565 56.0594 321.422 55.8843 323.337 56.2157C325.252 56.547 327.065 57.3935 328.776 58.7553C330.508 60.1337 331.751 61.7202 332.507 63.5146C333.283 65.3256 333.542 67.1676 333.283 69.0404C333.045 70.9299 332.255 72.7211 330.914 74.4142C329.606 76.0654 328.052 77.2317 326.253 77.9132C324.476 78.6112 322.611 78.7967 320.658 78.4697C318.743 78.1384 316.92 77.2835 315.188 75.9051ZM317.846 72.5504C318.806 73.3143 319.827 73.7862 320.909 73.966C321.992 74.1459 323.056 74.0047 324.103 73.5426C325.17 73.0971 326.126 72.3414 326.971 71.2754C327.832 70.1885 328.35 69.084 328.524 67.9619C328.736 66.8355 328.632 65.7643 328.212 64.7484C327.792 63.7325 327.113 62.8509 326.174 62.1036C325.214 61.3397 324.193 60.8678 323.111 60.6879C322.05 60.5247 320.985 60.6659 319.918 61.1114C318.867 61.536 317.911 62.2917 317.05 63.3786C316.205 64.4446 315.687 65.5491 315.496 66.6921C315.305 67.8351 315.409 68.9063 315.808 69.9055C316.228 70.9214 316.907 71.8031 317.846 72.5504Z" fill="#C7F25D"/>
<path d="M365.774 97.3224C366.826 98.6666 367.492 100.059 367.773 101.5C368.071 102.962 367.905 104.416 367.275 105.861C366.665 107.289 365.512 108.671 363.814 110.006L354.191 117.57L351.11 113.632L360.229 106.464C361.718 105.294 362.574 104.095 362.799 102.867C363.023 101.639 362.659 100.416 361.706 99.1977C361.032 98.3366 360.244 97.7184 359.34 97.3429C358.454 96.9885 357.495 96.9106 356.466 97.1094C355.453 97.3291 354.38 97.8839 353.248 98.7738L344.726 105.473L341.645 101.535L350.765 94.3662C352.253 93.1962 353.11 91.9972 353.334 90.7694C353.558 89.5415 353.194 88.3185 352.241 87.1004C351.567 86.2393 350.779 85.621 349.876 85.2456C348.989 84.8911 348.031 84.8133 347.001 85.012C345.988 85.2317 344.915 85.7865 343.783 86.6764L335.261 93.3753L332.18 89.4374L348.973 76.2374L351.906 79.9863L347.44 83.4964L348.244 81.7966C349.778 81.5068 351.247 81.6749 352.651 82.3011C354.071 82.9483 355.324 83.9649 356.408 85.3511C357.641 86.9263 358.321 88.5963 358.449 90.3612C358.593 92.147 358.027 93.847 356.751 95.461L356.078 93.4971C357.763 93.0544 359.476 93.1665 361.216 93.8333C362.957 94.5002 364.476 95.6633 365.774 97.3224Z" fill="#C7F25D"/>
<path d="M367.622 145.465L393.738 135.37L395.606 140.223L369.489 150.318L367.622 145.465Z" fill="#C7F25D"/>
<path d="M373.456 162.174L394.153 156.893L395.324 161.507L389.627 162.96L391.156 161.992C392.709 162.257 394.014 162.956 395.072 164.089C396.137 165.248 396.922 166.823 397.428 168.813L392.816 169.99C392.815 169.77 392.791 169.57 392.745 169.389C392.725 169.201 392.692 169.017 392.646 168.836C392.18 167.001 391.267 165.679 389.906 164.871C388.571 164.056 386.844 163.918 384.725 164.459L374.687 167.02L373.456 162.174Z" fill="#C7F25D"/>
<path d="M379.215 195.604C379.06 193.798 379.32 192.156 379.996 190.679C380.672 189.202 381.772 187.983 383.295 187.021C384.847 186.084 386.859 185.509 389.33 185.296C391.827 185.08 393.908 185.315 395.573 186.001C397.24 186.714 398.519 187.741 399.411 189.082C400.331 190.448 400.866 191.995 401.014 193.722C401.195 195.821 400.902 197.706 400.135 199.378C399.371 201.077 398.219 202.461 396.678 203.531C395.14 204.628 393.268 205.271 391.063 205.461C388.858 205.652 386.904 205.339 385.201 204.522C383.5 203.732 382.116 202.567 381.046 201.027C380.006 199.511 379.396 197.703 379.215 195.604ZM378.48 183.784L408.05 181.23L408.478 186.212L395.248 187.354L389.554 187.444L383.909 188.093L378.888 188.526L378.48 183.784ZM383.431 194.678C383.534 195.874 383.891 196.913 384.503 197.797C385.116 198.708 385.952 199.399 387.009 199.869C388.067 200.34 389.273 200.517 390.628 200.4C392.009 200.281 393.168 199.9 394.103 199.257C395.064 198.612 395.77 197.788 396.219 196.786C396.67 195.81 396.845 194.724 396.742 193.529C396.639 192.333 396.281 191.28 395.667 190.369C395.054 189.459 394.218 188.768 393.161 188.297C392.13 187.824 390.924 187.647 389.542 187.767C388.187 187.884 387.029 188.265 386.067 188.91C385.106 189.555 384.4 190.379 383.951 191.381C383.502 192.384 383.329 193.482 383.431 194.678Z" fill="#C7F25D"/>
<path d="M379.915 217.31L401.233 218.648L400.921 223.638L379.603 222.3L379.915 217.31ZM404.589 221.384C404.647 220.452 404.988 219.699 405.612 219.123C406.234 218.575 406.958 218.326 407.783 218.378C408.634 218.431 409.321 218.768 409.844 219.389C410.391 220.038 410.635 220.828 410.577 221.76C410.519 222.691 410.192 223.432 409.597 223.983C409.026 224.561 408.328 224.825 407.503 224.773C406.625 224.718 405.898 224.378 405.323 223.754C404.774 223.132 404.529 222.342 404.589 221.384Z" fill="#C7F25D"/>
<path d="M376.908 240.799C377.245 239.044 377.792 237.398 378.549 235.86C379.327 234.354 380.134 233.192 380.97 232.376L384.339 234.981C383.555 235.808 382.841 236.838 382.197 238.072C381.553 239.305 381.105 240.577 380.853 241.886C380.557 243.431 380.552 244.584 380.84 245.346C381.123 246.134 381.618 246.596 382.325 246.733C382.901 246.844 383.379 246.692 383.757 246.276C384.162 245.865 384.516 245.295 384.819 244.566C385.122 243.837 385.429 243.014 385.741 242.096C386.048 241.205 386.397 240.308 386.788 239.406C387.2 238.535 387.688 237.76 388.253 237.081C388.844 236.408 389.551 235.906 390.375 235.576C391.198 235.246 392.213 235.198 393.417 235.43C394.752 235.688 395.831 236.29 396.654 237.236C397.503 238.188 398.059 239.395 398.321 240.858C398.604 242.352 398.565 244.042 398.202 245.927C397.931 247.341 397.5 248.738 396.909 250.118C396.318 251.498 395.644 252.603 394.887 253.435L391.518 250.829C392.311 249.95 392.911 249.02 393.316 248.039C393.743 247.09 394.052 246.117 394.243 245.122C394.53 243.63 394.521 242.474 394.217 241.654C393.908 240.861 393.413 240.399 392.732 240.268C392.104 240.147 391.587 240.291 391.182 240.702C390.777 241.113 390.41 241.68 390.081 242.404C389.752 243.128 389.434 243.936 389.127 244.827C388.841 245.75 388.492 246.647 388.081 247.518C387.669 248.389 387.181 249.164 386.616 249.842C386.072 250.552 385.388 251.072 384.565 251.402C383.741 251.732 382.74 251.783 381.562 251.555C380.253 251.303 379.189 250.69 378.371 249.718C377.548 248.771 376.998 247.538 376.72 246.017C376.468 244.502 376.53 242.763 376.908 240.799Z" fill="#C7F25D"/>
<path d="M366.826 276.693L391.71 289.53L385.717 301.201C384.182 304.19 382.42 306.162 380.431 307.116C378.466 308.083 376.5 308.059 374.533 307.044C373.206 306.36 372.227 305.464 371.595 304.359C370.988 303.265 370.691 302.062 370.706 300.749C370.732 299.472 371.056 298.229 371.677 297.019L372.628 298.32C371.909 299.719 371.003 300.842 369.909 301.688C368.839 302.546 367.653 303.045 366.353 303.184C365.04 303.347 363.661 303.056 362.215 302.31C360.082 301.21 358.844 299.536 358.499 297.287C358.155 295.039 358.811 292.302 360.467 289.076L366.826 276.693ZM368.077 283.189L364.24 290.662C363.35 292.394 362.953 293.869 363.046 295.087C363.14 296.306 363.815 297.239 365.071 297.887C366.303 298.523 367.441 298.525 368.485 297.893C369.553 297.274 370.531 296.098 371.42 294.366L375.44 286.538L379.03 288.39L375.486 295.293C374.657 296.906 374.308 298.287 374.439 299.434C374.557 300.605 375.185 301.484 376.322 302.071C377.483 302.67 378.574 302.677 379.593 302.093C380.601 301.533 381.518 300.446 382.347 298.833L385.709 292.285L368.077 283.189Z" fill="#C7F25D"/>
<path d="M340.994 318.403L344.373 321.094L345.267 321.448L351.181 326.157C352.329 327.07 353.488 327.432 354.661 327.24C355.854 327.066 357.006 326.278 358.115 324.878C358.861 323.937 359.452 322.891 359.889 321.739C360.309 320.608 360.507 319.521 360.482 318.479L364.547 319.21C364.523 320.657 364.189 322.13 363.546 323.629C362.907 325.165 362.057 326.602 360.997 327.939C359.076 330.364 357.009 331.769 354.797 332.155C352.59 332.579 350.276 331.828 347.856 329.901L338.062 322.102L340.994 318.403ZM344.949 312.962C345.943 311.708 347.021 310.777 348.184 310.169C349.367 309.577 350.541 309.319 351.706 309.395C352.876 309.508 353.94 309.946 354.9 310.711C355.839 311.458 356.51 312.35 356.913 313.387C357.299 314.445 357.306 315.66 356.932 317.033C356.559 318.406 355.701 319.939 354.36 321.631L350.508 326.49L347.911 324.422L351.539 319.846C352.599 318.508 353.092 317.435 353.018 316.626C352.965 315.834 352.626 315.189 352 314.691C351.291 314.126 350.504 313.96 349.64 314.192C348.775 314.424 347.946 315.041 347.15 316.045C346.389 317.006 345.928 318.037 345.77 319.138C345.596 320.26 345.803 321.329 346.394 322.345L343.525 321.134C342.843 319.977 342.619 318.692 342.856 317.278C343.075 315.884 343.773 314.446 344.949 312.962Z" fill="#C7F25D"/>
<path d="M324.366 335.436C325.692 334.239 327.12 333.255 328.651 332.484C330.179 331.751 331.522 331.311 332.68 331.164L333.795 335.277C332.672 335.464 331.483 335.855 330.225 336.451C328.968 337.047 327.845 337.792 326.855 338.685C325.687 339.739 324.989 340.658 324.759 341.44C324.51 342.239 324.626 342.907 325.107 343.443C325.499 343.879 325.972 344.046 326.524 343.942C327.094 343.858 327.72 343.617 328.401 343.218C329.082 342.819 329.823 342.347 330.625 341.803C331.407 341.277 332.225 340.771 333.08 340.287C333.933 339.84 334.79 339.516 335.649 339.315C336.526 339.134 337.392 339.16 338.247 339.394C339.103 339.628 339.94 340.201 340.76 341.113C341.669 342.125 342.166 343.257 342.252 344.509C342.355 345.781 342.07 347.08 341.397 348.406C340.723 349.769 339.673 351.095 338.247 352.381C337.179 353.346 335.993 354.201 334.69 354.946C333.388 355.69 332.184 356.166 331.079 356.373L329.965 352.26C331.127 352.037 332.165 351.657 333.08 351.118C333.992 350.618 334.825 350.028 335.577 349.349C336.705 348.331 337.395 347.403 337.646 346.565C337.878 345.745 337.762 345.078 337.298 344.562C336.871 344.086 336.372 343.89 335.801 343.973C335.231 344.057 334.597 344.288 333.898 344.668C333.199 345.047 332.459 345.5 331.677 346.026C330.893 346.59 330.074 347.096 329.221 347.542C328.368 347.989 327.512 348.313 326.653 348.514C325.791 348.753 324.933 348.755 324.078 348.521C323.223 348.287 322.394 347.724 321.592 346.832C320.701 345.84 320.222 344.709 320.157 343.439C320.071 342.187 320.376 340.87 321.07 339.489C321.783 338.127 322.881 336.776 324.366 335.436Z" fill="#C7F25D"/>
<path d="M302.465 352.415C304.412 351.106 306.251 350.593 307.981 350.877C309.725 351.182 311.257 352.321 312.576 354.294L323.229 370.22L319.079 373.009L308.493 357.183C307.93 356.34 307.282 355.828 306.55 355.645C305.796 355.477 305.032 355.653 304.257 356.174C303.328 356.799 302.716 357.563 302.423 358.467L299.281 356.289C299.501 355.563 299.899 354.862 300.474 354.186C301.048 353.511 301.712 352.92 302.465 352.415ZM321.214 360.875L323.437 364.2L311.618 372.143L309.394 368.818L321.214 360.875Z" fill="#C7F25D"/>
<path d="M290.358 359.927L300.105 378.934L295.66 381.224L285.913 362.217L290.358 359.927ZM299.471 383.22C300.301 382.793 301.122 382.7 301.935 382.941C302.724 383.194 303.307 383.688 303.685 384.424C304.074 385.183 304.136 385.946 303.87 386.713C303.592 387.516 303.039 388.132 302.209 388.559C301.379 388.987 300.576 389.085 299.799 388.856C299.01 388.662 298.427 388.198 298.05 387.462C297.649 386.679 297.569 385.88 297.81 385.066C298.064 384.275 298.618 383.66 299.471 383.22Z" fill="#C7F25D"/>
<path d="M265.897 370.37C267.964 369.655 269.955 369.46 271.872 369.785C273.798 370.135 275.496 370.93 276.966 372.171C278.437 373.412 279.515 375.028 280.201 377.02C280.895 379.037 281.041 380.976 280.638 382.836C280.244 384.722 279.392 386.385 278.083 387.826C276.774 389.266 275.086 390.344 273.019 391.058C270.927 391.782 268.923 391.981 267.006 391.656C265.065 391.341 263.375 390.57 261.938 389.346C260.476 388.131 259.394 386.502 258.691 384.459C258.005 382.467 257.859 380.528 258.254 378.643C258.623 376.765 259.47 375.09 260.796 373.616C262.105 372.175 263.805 371.093 265.897 370.37ZM267.29 374.417C266.131 374.818 265.185 375.427 264.451 376.245C263.717 377.063 263.263 378.039 263.089 379.171C262.89 380.312 263.011 381.526 263.454 382.812C263.905 384.123 264.556 385.153 265.407 385.903C266.241 386.687 267.198 387.174 268.279 387.365C269.36 387.555 270.467 387.455 271.601 387.062C272.761 386.661 273.707 386.052 274.441 385.234C275.149 384.424 275.603 383.449 275.802 382.308C276.011 381.192 275.889 379.978 275.438 378.667C274.995 377.381 274.344 376.351 273.485 375.576C272.626 374.801 271.668 374.313 270.613 374.114C269.532 373.924 268.424 374.025 267.29 374.417Z" fill="#C7F25D"/>
<path d="M236.202 399.943C234.513 400.185 232.961 400.071 231.547 399.601C230.106 399.134 228.905 398.269 227.944 397.006C226.986 395.77 226.354 394.082 226.049 391.944L224.318 379.827L229.268 379.117L230.908 390.6C231.176 392.474 231.824 393.809 232.854 394.604C233.857 395.403 235.15 395.689 236.734 395.462C237.895 395.295 238.891 394.91 239.72 394.306C240.55 393.702 241.148 392.889 241.513 391.866C241.857 390.874 241.926 389.665 241.723 388.24L240.196 377.548L245.145 376.838L248.165 397.984L243.454 398.66L242.639 392.958L243.719 394.581C243.173 396.033 242.251 397.216 240.953 398.129C239.634 399.073 238.05 399.678 236.202 399.943Z" fill="#C7F25D"/>
</g>
<defs>
<filter id="filter0_d_696_3432" x="9.12891" y="11.0967" width="417.248" height="417.647" filterUnits="userSpaceOnUse" color-interpolation-filters="sRGB">
<feFlood flood-opacity="0" result="BackgroundImageFix"/>
<feColorMatrix in="SourceAlpha" type="matrix" values="0 0 0 0 0 0 0 0 0 0 0 0 0 0 0 0 0 0 127 0" result="hardAlpha"/>
<feOffset dx="9" dy="14"/>
<feGaussianBlur stdDeviation="3.3"/>
<feComposite in2="hardAlpha" operator="out"/>
<feColorMatrix type="matrix" values="0 0 0 0 0 0 0 0 0 0 0 0 0 0 0 0 0 0 0.25 0"/>
<feBlend mode="normal" in2="BackgroundImageFix" result="effect1_dropShadow_696_3432"/>
<feBlend mode="normal" in="SourceGraphic" in2="effect1_dropShadow_696_3432" result="shape"/>
</filter>
</defs>
</svg>
