<svg width="267" height="74" viewBox="0 0 267 74" fill="none" xmlns="http://www.w3.org/2000/svg">
<path d="M119.329 32.1925L152.734 0H119.941L102.953 16.3718L119.329 32.1925Z" fill="#004BB0"/>
<path d="M119.329 40.9707L152.734 73.1632H119.941L102.953 56.7915L119.329 40.9707Z" fill="#004BB0"/>
<path d="M82.168 38.8438L46.5977 73.1614H79.3903L115.002 38.8438H82.168Z" fill="#004BB0"/>
<path d="M115.002 34.3177L79.3903 0H46.5977L82.168 34.3177H115.002Z" fill="#004BB0"/>
<path d="M171.685 42.0723C169.194 48.9201 163.436 53.6428 155.023 53.6428C142.364 53.6428 136.441 44.2368 136.441 36.1297C136.441 28.5735 142.159 19.0889 154.737 19.0889C163.231 19.0889 169.439 23.8902 171.685 30.8954H162.578C160.985 27.9045 158.167 26.4483 154.615 26.4483C148.162 26.4483 144.528 31.0135 144.528 36.2084C144.528 41.7575 148.407 46.2046 154.615 46.2046C156.003 46.2046 160.332 45.9685 162.578 41.9936H171.685V42.0723Z" fill="#004BB0"/>
<path d="M210.888 36.4424C210.888 45.8876 203.292 53.6406 193.041 53.6406C182.791 53.6406 175.195 45.8483 175.195 36.4424C175.195 26.9578 182.709 19.1261 193.041 19.1261C203.373 19.0868 210.888 26.9578 210.888 36.4424ZM183.24 36.4424C183.24 41.716 187.079 46.2812 193.041 46.2812C199.003 46.2812 202.801 41.716 202.801 36.4424C202.801 31.1689 199.044 26.4856 193.041 26.4856C186.997 26.4856 183.24 31.1689 183.24 36.4424Z" fill="#004BB0"/>
<path d="M216.402 19.5596H223.835V23.6131H223.958C226.326 20.386 230.165 19.5596 232.697 19.5596C236.087 19.5596 240.211 20.9763 242.539 24.597C244.499 22.039 247.807 19.5596 253.28 19.5596C261.488 19.5596 267.001 24.9512 267.001 34.0816V53.0508H258.915V35.8526C258.915 32.9403 258.547 26.9583 252.299 26.9583C246.092 26.9583 245.724 32.9403 245.724 35.8526V53.0902H237.679V35.8526C237.679 32.9403 237.312 26.9583 231.064 26.9583C224.856 26.9583 224.489 32.9403 224.489 35.8526V53.0902H216.402V19.5596Z" fill="#004BB0"/>
<path d="M44.2269 6.53201H34.1807C33.3232 6.53201 32.6289 5.86297 32.6289 5.03651C32.6289 4.21006 33.3232 3.54102 34.1807 3.54102H44.2269C45.0845 3.54102 45.7787 4.21006 45.7787 5.03651C45.7787 5.86297 45.0845 6.53201 44.2269 6.53201Z" fill="#004BB0"/>
<path d="M52.4368 14.4441H25.9737C25.1161 14.4441 24.4219 13.775 24.4219 12.9486C24.4219 12.1221 25.1161 11.4531 25.9737 11.4531H52.4368C53.2944 11.4531 53.9886 12.1221 53.9886 12.9486C53.9886 13.775 53.2944 14.4441 52.4368 14.4441Z" fill="#004BB0"/>
<path d="M68.8544 30.2244H9.51665C8.65909 30.2244 7.96484 29.5553 7.96484 28.7289C7.96484 27.9024 8.65909 27.2334 9.51665 27.2334H68.8544C69.712 27.2334 70.4063 27.9024 70.4063 28.7289C70.4063 29.5553 69.712 30.2244 68.8544 30.2244Z" fill="#004BB0"/>
<path d="M60.8054 22.3533H17.5988C16.7411 22.3533 16.0469 21.6843 16.0469 20.8578C16.0469 20.0314 16.7411 19.3623 17.5988 19.3623H60.7645C61.6222 19.3623 62.3164 20.0314 62.3164 20.8578C62.3164 21.6843 61.6222 22.3533 60.8054 22.3533Z" fill="#004BB0"/>
<path d="M76.8572 38.1356H1.55184C0.694247 38.1356 0 37.4665 0 36.64C0 35.8136 0.694247 35.1445 1.55184 35.1445H76.8572C77.7148 35.1445 78.4091 35.8136 78.4091 36.64C78.4091 37.4665 77.7148 38.1356 76.8572 38.1356Z" fill="#004BB0"/>
<path d="M44.2269 69.698H34.1807C33.3232 69.698 32.6289 69.029 32.6289 68.2025C32.6289 67.3761 33.3232 66.707 34.1807 66.707H44.2269C45.0845 66.707 45.7787 67.3761 45.7787 68.2025C45.7787 69.029 45.0845 69.698 44.2269 69.698Z" fill="#004BB0"/>
<path d="M52.4368 61.7879H25.9737C25.1161 61.7879 24.4219 61.1188 24.4219 60.2924C24.4219 59.466 25.1161 58.7969 25.9737 58.7969H52.4368C53.2944 58.7969 53.9886 59.466 53.9886 60.2924C53.9886 61.1188 53.2944 61.7879 52.4368 61.7879Z" fill="#004BB0"/>
<path d="M68.8544 46.0066H9.51665C8.65909 46.0066 7.96484 45.3376 7.96484 44.5111C7.96484 43.6847 8.65909 43.0156 9.51665 43.0156H68.8544C69.712 43.0156 70.4063 43.6847 70.4063 44.5111C70.4063 45.3376 69.712 46.0066 68.8544 46.0066Z" fill="#004BB0"/>
<path d="M60.8054 53.9158H17.5988C16.7411 53.9158 16.0469 53.2468 16.0469 52.4203C16.0469 51.5939 16.7411 50.9248 17.5988 50.9248H60.7645C61.6222 50.9248 62.3164 51.5939 62.3164 52.4203C62.3164 53.2468 61.6222 53.9158 60.8054 53.9158Z" fill="#004BB0"/>
</svg>
